<svg width="403" height="125" viewBox="0 0 403 125" fill="none" xmlns="http://www.w3.org/2000/svg">
<path d="M31.0909 53.0909C30.8182 50.7879 29.7121 49 27.7727 47.7273C25.8333 46.4545 23.4545 45.8182 20.6364 45.8182C18.5758 45.8182 16.7727 46.1515 15.2273 46.8182C13.697 47.4848 12.5 48.4015 11.6364 49.5682C10.7879 50.7348 10.3636 52.0606 10.3636 53.5455C10.3636 54.7879 10.6591 55.8561 11.25 56.75C11.8561 57.6288 12.6288 58.3636 13.5682 58.9545C14.5076 59.5303 15.4924 60.0076 16.5227 60.3864C17.553 60.75 18.5 61.0455 19.3636 61.2727L24.0909 62.5455C25.303 62.8636 26.6515 63.303 28.1364 63.8636C29.6364 64.4242 31.0682 65.1894 32.4318 66.1591C33.8106 67.1136 34.947 68.3409 35.8409 69.8409C36.7349 71.3409 37.1818 73.1818 37.1818 75.3636C37.1818 77.8788 36.5227 80.1515 35.2045 82.1818C33.9015 84.2121 31.9924 85.8258 29.4773 87.0227C26.9773 88.2197 23.9394 88.8182 20.3636 88.8182C17.0303 88.8182 14.1439 88.2803 11.7045 87.2045C9.2803 86.1288 7.37121 84.6288 5.97727 82.7045C4.59848 80.7803 3.81818 78.5455 3.63636 76H9.45455C9.60606 77.7576 10.197 79.2121 11.2273 80.3636C12.2727 81.5 13.5909 82.3485 15.1818 82.9091C16.7879 83.4545 18.5152 83.7273 20.3636 83.7273C22.5152 83.7273 24.447 83.3788 26.1591 82.6818C27.8712 81.9697 29.2273 80.9848 30.2273 79.7273C31.2273 78.4545 31.7273 76.9697 31.7273 75.2727C31.7273 73.7273 31.2955 72.4697 30.4318 71.5C29.5682 70.5303 28.4318 69.7424 27.0227 69.1364C25.6136 68.5303 24.0909 68 22.4545 67.5455L16.7273 65.9091C13.0909 64.8636 10.2121 63.3712 8.09091 61.4318C5.9697 59.4924 4.90909 56.9545 4.90909 53.8182C4.90909 51.2121 5.61364 48.9394 7.02273 47C8.44697 45.0455 10.3561 43.5303 12.75 42.4545C15.1591 41.3636 17.8485 40.8182 20.8182 40.8182C23.8182 40.8182 26.4848 41.3561 28.8182 42.4318C31.1515 43.4924 33 44.947 34.3636 46.7955C35.7424 48.6439 36.4697 50.7424 36.5455 53.0909H31.0909ZM45.7216 88V53.0909H50.9034V58.5455H51.358C52.0852 56.6818 53.2595 55.2348 54.8807 54.2045C56.5019 53.1591 58.4489 52.6364 60.7216 52.6364C63.0246 52.6364 64.9413 53.1591 66.4716 54.2045C68.017 55.2348 69.2216 56.6818 70.0852 58.5455H70.4489C71.3428 56.7424 72.6837 55.3106 74.4716 54.25C76.2595 53.1742 78.4034 52.6364 80.9034 52.6364C84.0246 52.6364 86.5777 53.6136 88.5625 55.5682C90.5474 57.5076 91.5398 60.5303 91.5398 64.6364V88H86.1761V64.6364C86.1761 62.0606 85.4716 60.2197 84.0625 59.1136C82.6534 58.0076 80.9943 57.4545 79.0852 57.4545C76.6307 57.4545 74.7292 58.197 73.3807 59.6818C72.0322 61.1515 71.358 63.0152 71.358 65.2727V88H65.9034V64.0909C65.9034 62.1061 65.2595 60.5076 63.9716 59.2955C62.6837 58.0682 61.0246 57.4545 58.9943 57.4545C57.6004 57.4545 56.2973 57.8258 55.0852 58.5682C53.8883 59.3106 52.9186 60.3409 52.1761 61.6591C51.4489 62.9621 51.0852 64.4697 51.0852 66.1818V88H45.7216ZM111.619 88.8182C109.407 88.8182 107.4 88.4015 105.597 87.5682C103.794 86.7197 102.362 85.5 101.301 83.9091C100.241 82.303 99.7102 80.3636 99.7102 78.0909C99.7102 76.0909 100.104 74.4697 100.892 73.2273C101.68 71.9697 102.733 70.9848 104.051 70.2727C105.369 69.5606 106.824 69.0303 108.415 68.6818C110.021 68.3182 111.634 68.0303 113.256 67.8182C115.377 67.5455 117.097 67.3409 118.415 67.2045C119.748 67.053 120.718 66.803 121.324 66.4545C121.945 66.1061 122.256 65.5 122.256 64.6364V64.4545C122.256 62.2121 121.642 60.4697 120.415 59.2273C119.203 57.9848 117.362 57.3636 114.892 57.3636C112.331 57.3636 110.324 57.9242 108.869 59.0455C107.415 60.1667 106.392 61.3636 105.801 62.6364L100.71 60.8182C101.619 58.697 102.831 57.0455 104.347 55.8636C105.877 54.6667 107.544 53.8333 109.347 53.3636C111.165 52.8788 112.953 52.6364 114.71 52.6364C115.831 52.6364 117.119 52.7727 118.574 53.0455C120.044 53.303 121.46 53.8409 122.824 54.6591C124.203 55.4773 125.347 56.7121 126.256 58.3636C127.165 60.0152 127.619 62.2273 127.619 65V88H122.256V83.2727H121.983C121.619 84.0303 121.013 84.8409 120.165 85.7045C119.316 86.5682 118.188 87.303 116.778 87.9091C115.369 88.5152 113.65 88.8182 111.619 88.8182ZM112.438 84C114.559 84 116.347 83.5833 117.801 82.75C119.271 81.9167 120.377 80.8409 121.119 79.5227C121.877 78.2045 122.256 76.8182 122.256 75.3636V70.4545C122.028 70.7273 121.528 70.9773 120.756 71.2045C119.998 71.4167 119.119 71.6061 118.119 71.7727C117.134 71.9242 116.172 72.0606 115.233 72.1818C114.309 72.2879 113.559 72.3788 112.983 72.4545C111.589 72.6364 110.286 72.9318 109.074 73.3409C107.877 73.7348 106.907 74.3333 106.165 75.1364C105.438 75.9242 105.074 77 105.074 78.3636C105.074 80.2273 105.763 81.6364 107.142 82.5909C108.536 83.5303 110.301 84 112.438 84ZM137.409 88V53.0909H142.591V58.3636H142.955C143.591 56.6364 144.742 55.2348 146.409 54.1591C148.076 53.0833 149.955 52.5455 152.045 52.5455C152.439 52.5455 152.932 52.553 153.523 52.5682C154.114 52.5833 154.561 52.6061 154.864 52.6364V58.0909C154.682 58.0455 154.265 57.9773 153.614 57.8864C152.977 57.7803 152.303 57.7273 151.591 57.7273C149.894 57.7273 148.379 58.0833 147.045 58.7955C145.727 59.4924 144.682 60.4621 143.909 61.7045C143.152 62.9318 142.773 64.3333 142.773 65.9091V88H137.409ZM178.591 53.0909V57.6364H160.5V53.0909H178.591ZM165.773 44.7273H171.136V78C171.136 79.5152 171.356 80.6515 171.795 81.4091C172.25 82.1515 172.826 82.6515 173.523 82.9091C174.235 83.1515 174.985 83.2727 175.773 83.2727C176.364 83.2727 176.848 83.2424 177.227 83.1818C177.606 83.1061 177.909 83.0455 178.136 83L179.227 87.8182C178.864 87.9545 178.356 88.0909 177.705 88.2273C177.053 88.3788 176.227 88.4545 175.227 88.4545C173.712 88.4545 172.227 88.1288 170.773 87.4773C169.333 86.8258 168.136 85.8333 167.182 84.5C166.242 83.1667 165.773 81.4848 165.773 79.4545V44.7273ZM188.136 88V41.4545H204.409C207.652 41.4545 210.326 42.0152 212.432 43.1364C214.538 44.2424 216.106 45.7348 217.136 47.6136C218.167 49.4773 218.682 51.5455 218.682 53.8182C218.682 55.8182 218.326 57.4697 217.614 58.7727C216.917 60.0758 215.992 61.1061 214.841 61.8636C213.705 62.6212 212.47 63.1818 211.136 63.5455V64C212.561 64.0909 213.992 64.5909 215.432 65.5C216.871 66.4091 218.076 67.7121 219.045 69.4091C220.015 71.1061 220.5 73.1818 220.5 75.6364C220.5 77.9697 219.97 80.0682 218.909 81.9318C217.848 83.7955 216.174 85.2727 213.886 86.3636C211.598 87.4545 208.621 88 204.955 88H188.136ZM193.773 83H204.955C208.636 83 211.25 82.2879 212.795 80.8636C214.356 79.4242 215.136 77.6818 215.136 75.6364C215.136 74.0606 214.735 72.6061 213.932 71.2727C213.129 69.9242 211.985 68.8485 210.5 68.0455C209.015 67.2273 207.258 66.8182 205.227 66.8182H193.773V83ZM193.773 61.9091H204.227C205.924 61.9091 207.455 61.5758 208.818 60.9091C210.197 60.2424 211.288 59.303 212.091 58.0909C212.909 56.8788 213.318 55.4545 213.318 53.8182C213.318 51.7727 212.606 50.0379 211.182 48.6136C209.758 47.1742 207.5 46.4545 204.409 46.4545H193.773V61.9091ZM251.034 73.7273V53.0909H256.398V88H251.034V82.0909H250.67C249.852 83.8636 248.58 85.3712 246.852 86.6136C245.125 87.8409 242.943 88.4545 240.307 88.4545C238.125 88.4545 236.186 87.9773 234.489 87.0227C232.792 86.053 231.458 84.5985 230.489 82.6591C229.519 80.7045 229.034 78.2424 229.034 75.2727V53.0909H234.398V74.9091C234.398 77.4545 235.11 79.4848 236.534 81C237.973 82.5152 239.807 83.2727 242.034 83.2727C243.367 83.2727 244.723 82.9318 246.102 82.25C247.496 81.5682 248.663 80.5227 249.602 79.1136C250.557 77.7045 251.034 75.9091 251.034 73.7273ZM279.403 88.7273C276.494 88.7273 273.926 87.9924 271.699 86.5227C269.472 85.0379 267.729 82.947 266.472 80.25C265.214 77.5379 264.585 74.3333 264.585 70.6364C264.585 66.9697 265.214 63.7879 266.472 61.0909C267.729 58.3939 269.479 56.3106 271.722 54.8409C273.964 53.3712 276.555 52.6364 279.494 52.6364C281.767 52.6364 283.563 53.0152 284.881 53.7727C286.214 54.5152 287.229 55.3636 287.926 56.3182C288.638 57.2576 289.191 58.0303 289.585 58.6364H290.04V41.4545H295.403V88H290.222V82.6364H289.585C289.191 83.2727 288.631 84.0758 287.903 85.0455C287.176 86 286.138 86.8561 284.79 87.6136C283.441 88.3561 281.646 88.7273 279.403 88.7273ZM280.131 83.9091C282.282 83.9091 284.1 83.3485 285.585 82.2273C287.07 81.0909 288.199 79.5227 288.972 77.5227C289.744 75.5076 290.131 73.1818 290.131 70.5455C290.131 67.9394 289.752 65.6591 288.994 63.7045C288.237 61.7348 287.116 60.2045 285.631 59.1136C284.146 58.0076 282.313 57.4545 280.131 57.4545C277.858 57.4545 275.964 58.0379 274.449 59.2045C272.949 60.3561 271.82 61.9242 271.062 63.9091C270.32 65.8788 269.949 68.0909 269.949 70.5455C269.949 73.0303 270.328 75.2879 271.085 77.3182C271.858 79.3333 272.994 80.9394 274.494 82.1364C276.009 83.3182 277.888 83.9091 280.131 83.9091ZM320.062 101.818C317.472 101.818 315.244 101.485 313.381 100.818C311.517 100.167 309.964 99.303 308.722 98.2273C307.494 97.1667 306.517 96.0303 305.79 94.8182L310.062 91.8182C310.547 92.4545 311.161 93.1818 311.903 94C312.646 94.8333 313.661 95.553 314.949 96.1591C316.252 96.7803 317.956 97.0909 320.062 97.0909C322.881 97.0909 325.206 96.4091 327.04 95.0455C328.873 93.6818 329.79 91.5455 329.79 88.6364V81.5455H329.335C328.941 82.1818 328.381 82.9697 327.653 83.9091C326.941 84.8333 325.911 85.6591 324.562 86.3864C323.229 87.0985 321.426 87.4545 319.153 87.4545C316.335 87.4545 313.805 86.7879 311.562 85.4545C309.335 84.1212 307.57 82.1818 306.267 79.6364C304.979 77.0909 304.335 74 304.335 70.3636C304.335 66.7879 304.964 63.6742 306.222 61.0227C307.479 58.3561 309.229 56.2955 311.472 54.8409C313.714 53.3712 316.305 52.6364 319.244 52.6364C321.517 52.6364 323.32 53.0152 324.653 53.7727C326.002 54.5152 327.032 55.3636 327.744 56.3182C328.472 57.2576 329.032 58.0303 329.426 58.6364H329.972V53.0909H335.153V89C335.153 92 334.472 94.4394 333.108 96.3182C331.759 98.2121 329.941 99.5985 327.653 100.477C325.381 101.371 322.85 101.818 320.062 101.818ZM319.881 82.6364C322.032 82.6364 323.85 82.1439 325.335 81.1591C326.82 80.1742 327.949 78.7576 328.722 76.9091C329.494 75.0606 329.881 72.8485 329.881 70.2727C329.881 67.7576 329.502 65.5379 328.744 63.6136C327.987 61.6894 326.866 60.1818 325.381 59.0909C323.896 58 322.063 57.4545 319.881 57.4545C317.608 57.4545 315.714 58.0303 314.199 59.1818C312.699 60.3333 311.57 61.8788 310.812 63.8182C310.07 65.7576 309.699 67.9091 309.699 70.2727C309.699 72.697 310.078 74.8409 310.835 76.7045C311.608 78.553 312.744 80.0076 314.244 81.0682C315.759 82.1136 317.638 82.6364 319.881 82.6364ZM359.608 88.7273C356.244 88.7273 353.343 87.9848 350.903 86.5C348.479 85 346.608 82.9091 345.29 80.2273C343.987 77.5303 343.335 74.3939 343.335 70.8182C343.335 67.2424 343.987 64.0909 345.29 61.3636C346.608 58.6212 348.441 56.4848 350.79 54.9545C353.153 53.4091 355.911 52.6364 359.062 52.6364C360.881 52.6364 362.676 52.9394 364.449 53.5455C366.222 54.1515 367.835 55.1364 369.29 56.5C370.744 57.8485 371.903 59.6364 372.767 61.8636C373.631 64.0909 374.062 66.8333 374.062 70.0909V72.3636H347.153V67.7273H368.608C368.608 65.7576 368.214 64 367.426 62.4545C366.653 60.9091 365.547 59.6894 364.108 58.7955C362.684 57.9015 361.002 57.4545 359.062 57.4545C356.926 57.4545 355.078 57.9848 353.517 59.0455C351.972 60.0909 350.782 61.4545 349.949 63.1364C349.116 64.8182 348.699 66.6212 348.699 68.5455V71.6364C348.699 74.2727 349.153 76.5076 350.062 78.3409C350.987 80.1591 352.267 81.5455 353.903 82.5C355.54 83.4394 357.441 83.9091 359.608 83.9091C361.017 83.9091 362.29 83.7121 363.426 83.3182C364.578 82.9091 365.57 82.303 366.403 81.5C367.237 80.6818 367.881 79.6667 368.335 78.4545L373.517 79.9091C372.972 81.6667 372.055 83.2121 370.767 84.5455C369.479 85.8636 367.888 86.8939 365.994 87.6364C364.1 88.3636 361.972 88.7273 359.608 88.7273ZM397.403 53.0909V57.6364H379.312V53.0909H397.403ZM384.585 44.7273H389.949V78C389.949 79.5152 390.169 80.6515 390.608 81.4091C391.063 82.1515 391.638 82.6515 392.335 82.9091C393.047 83.1515 393.797 83.2727 394.585 83.2727C395.176 83.2727 395.661 83.2424 396.04 83.1818C396.419 83.1061 396.722 83.0455 396.949 83L398.04 87.8182C397.676 87.9545 397.169 88.0909 396.517 88.2273C395.866 88.3788 395.04 88.4545 394.04 88.4545C392.525 88.4545 391.04 88.1288 389.585 87.4773C388.146 86.8258 386.949 85.8333 385.994 84.5C385.055 83.1667 384.585 81.4848 384.585 79.4545V44.7273Z" fill="url(#paint0_linear_1_50)"/>
<path d="M77 33C185 -23.144 287.333 9.60667 325 33" stroke="url(#paint1_linear_1_50)" stroke-width="4"/>
<defs>
<linearGradient id="paint0_linear_1_50" x1="78.169" y1="26" x2="139.439" y2="193.013" gradientUnits="userSpaceOnUse">
<stop stop-color="#00FFE0"/>
<stop offset="0.348837" stop-color="#0BD7FA"/>
<stop offset="1" stop-color="#439FF3"/>
<stop offset="1" stop-color="#0D8AFD"/>
</linearGradient>
<linearGradient id="paint1_linear_1_50" x1="77" y1="19.9276" x2="325" y2="15.0724" gradientUnits="userSpaceOnUse">
<stop stop-color="#00FFE0"/>
<stop offset="0.525" stop-color="#0BD7FA"/>
<stop offset="1" stop-color="#439FF3"/>
</linearGradient>
</defs>
</svg>