<svg width="288" height="66" viewBox="0 0 288 66" fill="none" xmlns="http://www.w3.org/2000/svg">
<path d="M46 18C117.419 -9.16645 185.091 6.68065 210 18" stroke="url(#paint0_linear_11_60)" stroke-width="3"/>
<path d="M19.4318 27.1818C19.2614 25.7424 18.5701 24.625 17.358 23.8295C16.1458 23.0341 14.6591 22.6364 12.8977 22.6364C11.6098 22.6364 10.483 22.8447 9.51705 23.2614C8.56061 23.678 7.8125 24.2509 7.27273 24.9801C6.74242 25.7093 6.47727 26.5379 6.47727 27.4659C6.47727 28.2424 6.66193 28.91 7.03125 29.4688C7.41004 30.018 7.89299 30.4773 8.48011 30.8466C9.06723 31.2064 9.68277 31.5047 10.3267 31.7415C10.9706 31.9687 11.5625 32.1534 12.1023 32.2955L15.0568 33.0909C15.8144 33.2898 16.6572 33.5644 17.5852 33.9148C18.5227 34.2652 19.4176 34.7434 20.2699 35.3494C21.1316 35.946 21.8419 36.7131 22.4006 37.6506C22.9593 38.5881 23.2386 39.7386 23.2386 41.1023C23.2386 42.6742 22.8267 44.0947 22.0028 45.3636C21.1884 46.6326 19.9953 47.6411 18.4233 48.3892C16.8608 49.1373 14.9621 49.5114 12.7273 49.5114C10.6439 49.5114 8.83996 49.1752 7.31534 48.5028C5.80019 47.8305 4.60701 46.893 3.7358 45.6903C2.87405 44.4877 2.38636 43.0909 2.27273 41.5H5.90909C6.00379 42.5985 6.37311 43.5076 7.01705 44.2273C7.67045 44.9375 8.49432 45.4678 9.48864 45.8182C10.4924 46.1591 11.572 46.3295 12.7273 46.3295C14.072 46.3295 15.2794 46.1117 16.3494 45.6761C17.4195 45.2311 18.267 44.6155 18.892 43.8295C19.517 43.0341 19.8295 42.1061 19.8295 41.0455C19.8295 40.0795 19.5597 39.2936 19.0199 38.6875C18.4801 38.0814 17.7699 37.589 16.8892 37.2102C16.0085 36.8314 15.0568 36.5 14.0341 36.2159L10.4545 35.1932C8.18182 34.5398 6.38258 33.607 5.05682 32.3949C3.73106 31.1828 3.06818 29.5966 3.06818 27.6364C3.06818 26.0076 3.50852 24.5871 4.3892 23.375C5.27936 22.1534 6.47254 21.2064 7.96875 20.5341C9.47443 19.8523 11.1553 19.5114 13.0114 19.5114C14.8864 19.5114 16.553 19.8475 18.0114 20.5199C19.4697 21.1828 20.625 22.0919 21.4773 23.2472C22.339 24.4025 22.7936 25.714 22.8409 27.1818H19.4318ZM28.576 49V27.1818H31.8146V30.5909H32.0987C32.5533 29.4261 33.2872 28.5218 34.3004 27.8778C35.3137 27.2244 36.5305 26.8977 37.951 26.8977C39.3904 26.8977 40.5883 27.2244 41.5447 27.8778C42.5107 28.5218 43.2635 29.4261 43.8033 30.5909H44.0305C44.5893 29.464 45.4273 28.5691 46.5447 27.9062C47.6622 27.2339 49.0021 26.8977 50.5646 26.8977C52.5154 26.8977 54.111 27.5085 55.3516 28.7301C56.5921 29.9422 57.2124 31.8314 57.2124 34.3977V49H53.8601V34.3977C53.8601 32.7879 53.4197 31.6373 52.5391 30.946C51.6584 30.2547 50.6214 29.9091 49.4283 29.9091C47.8942 29.9091 46.7057 30.3731 45.8629 31.3011C45.0201 32.2197 44.5987 33.3845 44.5987 34.7955V49H41.1896V34.0568C41.1896 32.8163 40.7872 31.8172 39.9822 31.0597C39.1773 30.2926 38.1404 29.9091 36.8714 29.9091C36.0002 29.9091 35.1858 30.1411 34.4283 30.6051C33.6802 31.0691 33.0741 31.7131 32.6101 32.5369C32.1555 33.3513 31.9283 34.2936 31.9283 35.3636V49H28.576ZM69.7621 49.5114C68.3795 49.5114 67.1248 49.2509 65.9979 48.7301C64.871 48.1998 63.9761 47.4375 63.3132 46.4432C62.6503 45.4394 62.3189 44.2273 62.3189 42.8068C62.3189 41.5568 62.5651 40.5436 63.0575 39.767C63.55 38.9811 64.2081 38.3655 65.032 37.9205C65.8558 37.4754 66.7649 37.1439 67.7592 36.9261C68.763 36.6989 69.7715 36.5189 70.7848 36.3864C72.1106 36.2159 73.1854 36.0881 74.0092 36.0028C74.8426 35.9081 75.4486 35.7519 75.8274 35.5341C76.2157 35.3163 76.4098 34.9375 76.4098 34.3977V34.2841C76.4098 32.8826 76.0263 31.7936 75.2592 31.017C74.5017 30.2405 73.3511 29.8523 71.8075 29.8523C70.2071 29.8523 68.9524 30.2027 68.0433 30.9034C67.1342 31.6042 66.495 32.3523 66.1257 33.1477L62.9439 32.0114C63.5121 30.6856 64.2696 29.6534 65.2166 28.9148C66.1731 28.1667 67.2147 27.6458 68.3416 27.3523C69.478 27.0492 70.5954 26.8977 71.6939 26.8977C72.3946 26.8977 73.1996 26.983 74.1087 27.1534C75.0272 27.3144 75.9126 27.6506 76.7649 28.1619C77.6267 28.6733 78.3416 29.4451 78.9098 30.4773C79.478 31.5095 79.7621 32.892 79.7621 34.625V49H76.4098V46.0455H76.2393C76.0121 46.5189 75.6333 47.0256 75.103 47.5653C74.5727 48.1051 73.8672 48.5644 72.9865 48.9432C72.1058 49.322 71.031 49.5114 69.7621 49.5114ZM70.2734 46.5C71.5992 46.5 72.7166 46.2396 73.6257 45.7188C74.5443 45.1979 75.2356 44.5256 75.6996 43.7017C76.1731 42.8778 76.4098 42.0114 76.4098 41.1023V38.0341C76.2678 38.2045 75.9553 38.3608 75.4723 38.5028C74.9988 38.6354 74.4496 38.7538 73.8246 38.858C73.209 38.9527 72.6077 39.0379 72.0206 39.1136C71.4429 39.1799 70.9742 39.2367 70.6143 39.2841C69.7431 39.3977 68.9287 39.5824 68.1712 39.8381C67.4231 40.0843 66.817 40.4583 66.353 40.9602C65.8984 41.4527 65.6712 42.125 65.6712 42.9773C65.6712 44.142 66.102 45.0227 66.9638 45.6193C67.835 46.2064 68.9382 46.5 70.2734 46.5ZM85.8807 49V27.1818H89.1193V30.4773H89.3466C89.7443 29.3977 90.464 28.5218 91.5057 27.8494C92.5473 27.1771 93.7216 26.8409 95.0284 26.8409C95.2746 26.8409 95.5824 26.8456 95.9517 26.8551C96.321 26.8646 96.6004 26.8788 96.7898 26.8977V30.3068C96.6761 30.2784 96.4157 30.2358 96.0085 30.179C95.6108 30.1127 95.1894 30.0795 94.7443 30.0795C93.6837 30.0795 92.7367 30.3021 91.9034 30.7472C91.0795 31.1828 90.4261 31.7888 89.9432 32.5653C89.4697 33.3324 89.233 34.2083 89.233 35.1932V49H85.8807ZM111.619 27.1818V30.0227H100.312V27.1818H111.619ZM103.608 21.9545H106.96V42.75C106.96 43.697 107.098 44.4072 107.372 44.8807C107.656 45.3447 108.016 45.6572 108.452 45.8182C108.897 45.9697 109.366 46.0455 109.858 46.0455C110.227 46.0455 110.53 46.0265 110.767 45.9886C111.004 45.9413 111.193 45.9034 111.335 45.875L112.017 48.8864C111.79 48.9716 111.473 49.0568 111.065 49.142C110.658 49.2367 110.142 49.2841 109.517 49.2841C108.57 49.2841 107.642 49.0805 106.733 48.6733C105.833 48.2661 105.085 47.6458 104.489 46.8125C103.902 45.9792 103.608 44.928 103.608 43.6591V21.9545ZM117.585 49V19.9091H127.756C129.782 19.9091 131.454 20.2595 132.77 20.9602C134.086 21.6515 135.066 22.5843 135.71 23.7585C136.354 24.9233 136.676 26.2159 136.676 27.6364C136.676 28.8864 136.454 29.9186 136.009 30.733C135.573 31.5473 134.995 32.1913 134.276 32.6648C133.565 33.1383 132.794 33.4886 131.96 33.7159V34C132.85 34.0568 133.745 34.3693 134.645 34.9375C135.545 35.5057 136.297 36.3201 136.903 37.3807C137.509 38.4413 137.812 39.7386 137.812 41.2727C137.812 42.7311 137.481 44.0426 136.818 45.2074C136.155 46.3722 135.109 47.2955 133.679 47.9773C132.249 48.6591 130.388 49 128.097 49H117.585ZM121.108 45.875H128.097C130.398 45.875 132.031 45.4299 132.997 44.5398C133.973 43.6402 134.46 42.5511 134.46 41.2727C134.46 40.2879 134.209 39.3788 133.707 38.5455C133.205 37.7027 132.491 37.0303 131.562 36.5284C130.634 36.017 129.536 35.7614 128.267 35.7614H121.108V45.875ZM121.108 32.6932H127.642C128.703 32.6932 129.659 32.4848 130.511 32.0682C131.373 31.6515 132.055 31.0644 132.557 30.3068C133.068 29.5492 133.324 28.6591 133.324 27.6364C133.324 26.358 132.879 25.2737 131.989 24.3835C131.098 23.4839 129.688 23.0341 127.756 23.0341H121.108V32.6932ZM156.896 40.0795V27.1818H160.249V49H156.896V45.3068H156.669C156.158 46.4148 155.362 47.357 154.283 48.1335C153.203 48.9006 151.839 49.2841 150.192 49.2841C148.828 49.2841 147.616 48.9858 146.555 48.3892C145.495 47.7831 144.661 46.8741 144.055 45.6619C143.449 44.4403 143.146 42.9015 143.146 41.0455V27.1818H146.499V40.8182C146.499 42.4091 146.944 43.678 147.834 44.625C148.733 45.572 149.879 46.0455 151.271 46.0455C152.105 46.0455 152.952 45.8324 153.814 45.4062C154.685 44.9801 155.414 44.3267 156.001 43.446C156.598 42.5653 156.896 41.4432 156.896 40.0795ZM174.627 49.4545C172.809 49.4545 171.204 48.9953 169.812 48.0767C168.42 47.1487 167.331 45.8419 166.545 44.1562C165.759 42.4612 165.366 40.4583 165.366 38.1477C165.366 35.8561 165.759 33.8674 166.545 32.1818C167.331 30.4962 168.424 29.1941 169.826 28.2756C171.228 27.357 172.847 26.8977 174.684 26.8977C176.104 26.8977 177.227 27.1345 178.05 27.608C178.884 28.072 179.518 28.6023 179.954 29.1989C180.399 29.786 180.745 30.2689 180.991 30.6477H181.275V19.9091H184.627V49H181.388V45.6477H180.991C180.745 46.0455 180.394 46.5473 179.94 47.1534C179.485 47.75 178.836 48.285 177.994 48.7585C177.151 49.2225 176.029 49.4545 174.627 49.4545ZM175.082 46.4432C176.426 46.4432 177.563 46.0928 178.491 45.392C179.419 44.6818 180.124 43.7017 180.607 42.4517C181.09 41.1922 181.332 39.7386 181.332 38.0909C181.332 36.4621 181.095 35.0369 180.621 33.8153C180.148 32.5843 179.447 31.6278 178.519 30.946C177.591 30.2547 176.445 29.9091 175.082 29.9091C173.661 29.9091 172.478 30.2737 171.531 31.0028C170.593 31.7225 169.888 32.7027 169.414 33.9432C168.95 35.1742 168.718 36.5568 168.718 38.0909C168.718 39.6439 168.955 41.0549 169.428 42.3239C169.911 43.5833 170.621 44.5871 171.559 45.3352C172.506 46.0739 173.68 46.4432 175.082 46.4432ZM200.039 57.6364C198.42 57.6364 197.028 57.428 195.863 57.0114C194.698 56.6042 193.728 56.0644 192.951 55.392C192.184 54.7292 191.573 54.0189 191.119 53.2614L193.789 51.3864C194.092 51.7841 194.476 52.2386 194.94 52.75C195.404 53.2708 196.038 53.7206 196.843 54.0994C197.657 54.4877 198.723 54.6818 200.039 54.6818C201.8 54.6818 203.254 54.2557 204.4 53.4034C205.546 52.5511 206.119 51.2159 206.119 49.3977V44.9659H205.835C205.588 45.3636 205.238 45.8561 204.783 46.4432C204.338 47.0208 203.694 47.5369 202.852 47.9915C202.018 48.4366 200.891 48.6591 199.471 48.6591C197.71 48.6591 196.128 48.2424 194.727 47.4091C193.335 46.5758 192.231 45.3636 191.417 43.7727C190.612 42.1818 190.21 40.25 190.21 37.9773C190.21 35.7424 190.603 33.7964 191.388 32.1392C192.174 30.4725 193.268 29.1847 194.67 28.2756C196.071 27.357 197.691 26.8977 199.528 26.8977C200.948 26.8977 202.075 27.1345 202.908 27.608C203.751 28.072 204.395 28.6023 204.84 29.1989C205.295 29.786 205.645 30.2689 205.891 30.6477H206.232V27.1818H209.471V49.625C209.471 51.5 209.045 53.0246 208.192 54.1989C207.35 55.3826 206.213 56.2491 204.783 56.7983C203.363 57.357 201.781 57.6364 200.039 57.6364ZM199.925 45.6477C201.27 45.6477 202.406 45.34 203.335 44.7244C204.263 44.1089 204.968 43.2235 205.451 42.0682C205.934 40.9129 206.175 39.5303 206.175 37.9205C206.175 36.3485 205.939 34.9612 205.465 33.7585C204.992 32.5559 204.291 31.6136 203.363 30.9318C202.435 30.25 201.289 29.9091 199.925 29.9091C198.505 29.9091 197.321 30.2689 196.374 30.9886C195.437 31.7083 194.731 32.6742 194.258 33.8864C193.794 35.0985 193.562 36.4432 193.562 37.9205C193.562 39.4356 193.799 40.7756 194.272 41.9403C194.755 43.0956 195.465 44.0047 196.403 44.6676C197.35 45.321 198.524 45.6477 199.925 45.6477ZM224.755 49.4545C222.653 49.4545 220.839 48.9905 219.315 48.0625C217.799 47.125 216.63 45.8182 215.806 44.142C214.992 42.4564 214.585 40.4962 214.585 38.2614C214.585 36.0265 214.992 34.0568 215.806 32.3523C216.63 30.6383 217.776 29.303 219.244 28.3466C220.721 27.3807 222.444 26.8977 224.414 26.8977C225.55 26.8977 226.673 27.0871 227.781 27.4659C228.888 27.8447 229.897 28.4602 230.806 29.3125C231.715 30.1553 232.44 31.2727 232.979 32.6648C233.519 34.0568 233.789 35.7708 233.789 37.8068V39.2273H216.971V36.3295H230.38C230.38 35.0985 230.134 34 229.641 33.0341C229.158 32.0682 228.467 31.3059 227.567 30.7472C226.677 30.1884 225.626 29.9091 224.414 29.9091C223.079 29.9091 221.924 30.2405 220.948 30.9034C219.982 31.5568 219.239 32.4091 218.718 33.4602C218.197 34.5114 217.937 35.6383 217.937 36.8409V38.7727C217.937 40.4205 218.221 41.8172 218.789 42.9631C219.367 44.0994 220.167 44.9659 221.19 45.5625C222.212 46.1496 223.401 46.4432 224.755 46.4432C225.636 46.4432 226.431 46.3201 227.141 46.0739C227.861 45.8182 228.481 45.4394 229.002 44.9375C229.523 44.4261 229.925 43.7917 230.21 43.0341L233.448 43.9432C233.107 45.0417 232.534 46.0076 231.729 46.8409C230.924 47.6648 229.93 48.3087 228.746 48.7727C227.563 49.2273 226.232 49.4545 224.755 49.4545ZM248.377 27.1818V30.0227H237.07V27.1818H248.377ZM240.366 21.9545H243.718V42.75C243.718 43.697 243.855 44.4072 244.13 44.8807C244.414 45.3447 244.774 45.6572 245.21 45.8182C245.655 45.9697 246.123 46.0455 246.616 46.0455C246.985 46.0455 247.288 46.0265 247.525 45.9886C247.762 45.9413 247.951 45.9034 248.093 45.875L248.775 48.8864C248.548 48.9716 248.23 49.0568 247.823 49.142C247.416 49.2367 246.9 49.2841 246.275 49.2841C245.328 49.2841 244.4 49.0805 243.491 48.6733C242.591 48.2661 241.843 47.6458 241.246 46.8125C240.659 45.9792 240.366 44.928 240.366 43.6591V21.9545Z" fill="url(#paint1_linear_11_60)"/>
<defs>
<linearGradient id="paint0_linear_11_60" x1="46" y1="11.6746" x2="209.945" y2="7.28817" gradientUnits="userSpaceOnUse">
<stop stop-color="#00FFE0"/>
<stop offset="0.525" stop-color="#0BD7FA"/>
<stop offset="1" stop-color="#439FF3"/>
</linearGradient>
<linearGradient id="paint1_linear_11_60" x1="49.6558" y1="10" x2="81.2944" y2="106.851" gradientUnits="userSpaceOnUse">
<stop stop-color="#00FFE0"/>
<stop offset="0.348837" stop-color="#0BD7FA"/>
<stop offset="1" stop-color="#439FF3"/>
<stop offset="1" stop-color="#0D8AFD"/>
</linearGradient>
</defs>
</svg>