<svg width="256" height="70" viewBox="0 0 256 70" fill="none" xmlns="http://www.w3.org/2000/svg">
<path d="M46 17C117.419 -10.1664 185.091 5.68065 210 17" stroke="white" stroke-width="3"/>
<path d="M19.4318 31.1818C19.2614 29.7424 18.5701 28.625 17.358 27.8295C16.1458 27.0341 14.6591 26.6364 12.8977 26.6364C11.6098 26.6364 10.483 26.8447 9.51705 27.2614C8.56061 27.678 7.8125 28.2509 7.27273 28.9801C6.74242 29.7093 6.47727 30.5379 6.47727 31.4659C6.47727 32.2424 6.66193 32.91 7.03125 33.4688C7.41004 34.018 7.89299 34.4773 8.48011 34.8466C9.06723 35.2064 9.68277 35.5047 10.3267 35.7415C10.9706 35.9687 11.5625 36.1534 12.1023 36.2955L15.0568 37.0909C15.8144 37.2898 16.6572 37.5644 17.5852 37.9148C18.5227 38.2652 19.4176 38.7434 20.2699 39.3494C21.1316 39.946 21.8419 40.7131 22.4006 41.6506C22.9593 42.5881 23.2386 43.7386 23.2386 45.1023C23.2386 46.6742 22.8267 48.0947 22.0028 49.3636C21.1884 50.6326 19.9953 51.6411 18.4233 52.3892C16.8608 53.1373 14.9621 53.5114 12.7273 53.5114C10.6439 53.5114 8.83996 53.1752 7.31534 52.5028C5.80019 51.8305 4.60701 50.893 3.7358 49.6903C2.87405 48.4877 2.38636 47.0909 2.27273 45.5H5.90909C6.00379 46.5985 6.37311 47.5076 7.01705 48.2273C7.67045 48.9375 8.49432 49.4678 9.48864 49.8182C10.4924 50.1591 11.572 50.3295 12.7273 50.3295C14.072 50.3295 15.2794 50.1117 16.3494 49.6761C17.4195 49.2311 18.267 48.6155 18.892 47.8295C19.517 47.0341 19.8295 46.1061 19.8295 45.0455C19.8295 44.0795 19.5597 43.2936 19.0199 42.6875C18.4801 42.0814 17.7699 41.589 16.8892 41.2102C16.0085 40.8314 15.0568 40.5 14.0341 40.2159L10.4545 39.1932C8.18182 38.5398 6.38258 37.607 5.05682 36.3949C3.73106 35.1828 3.06818 33.5966 3.06818 31.6364C3.06818 30.0076 3.50852 28.5871 4.3892 27.375C5.27936 26.1534 6.47254 25.2064 7.96875 24.5341C9.47443 23.8523 11.1553 23.5114 13.0114 23.5114C14.8864 23.5114 16.553 23.8475 18.0114 24.5199C19.4697 25.1828 20.625 26.0919 21.4773 27.2472C22.339 28.4025 22.7936 29.714 22.8409 31.1818H19.4318ZM28.576 53V31.1818H31.8146V34.5909H32.0987C32.5533 33.4261 33.2872 32.5218 34.3004 31.8778C35.3137 31.2244 36.5305 30.8977 37.951 30.8977C39.3904 30.8977 40.5883 31.2244 41.5447 31.8778C42.5107 32.5218 43.2635 33.4261 43.8033 34.5909H44.0305C44.5893 33.464 45.4273 32.5691 46.5447 31.9062C47.6622 31.2339 49.0021 30.8977 50.5646 30.8977C52.5154 30.8977 54.111 31.5085 55.3516 32.7301C56.5921 33.9422 57.2124 35.8314 57.2124 38.3977V53H53.8601V38.3977C53.8601 36.7879 53.4197 35.6373 52.5391 34.946C51.6584 34.2547 50.6214 33.9091 49.4283 33.9091C47.8942 33.9091 46.7057 34.3731 45.8629 35.3011C45.0201 36.2197 44.5987 37.3845 44.5987 38.7955V53H41.1896V38.0568C41.1896 36.8163 40.7872 35.8172 39.9822 35.0597C39.1773 34.2926 38.1404 33.9091 36.8714 33.9091C36.0002 33.9091 35.1858 34.1411 34.4283 34.6051C33.6802 35.0691 33.0741 35.7131 32.6101 36.5369C32.1555 37.3513 31.9283 38.2936 31.9283 39.3636V53H28.576ZM69.7621 53.5114C68.3795 53.5114 67.1248 53.2509 65.9979 52.7301C64.871 52.1998 63.9761 51.4375 63.3132 50.4432C62.6503 49.4394 62.3189 48.2273 62.3189 46.8068C62.3189 45.5568 62.5651 44.5436 63.0575 43.767C63.55 42.9811 64.2081 42.3655 65.032 41.9205C65.8558 41.4754 66.7649 41.1439 67.7592 40.9261C68.763 40.6989 69.7715 40.5189 70.7848 40.3864C72.1106 40.2159 73.1854 40.0881 74.0092 40.0028C74.8426 39.9081 75.4486 39.7519 75.8274 39.5341C76.2157 39.3163 76.4098 38.9375 76.4098 38.3977V38.2841C76.4098 36.8826 76.0263 35.7936 75.2592 35.017C74.5017 34.2405 73.3511 33.8523 71.8075 33.8523C70.2071 33.8523 68.9524 34.2027 68.0433 34.9034C67.1342 35.6042 66.495 36.3523 66.1257 37.1477L62.9439 36.0114C63.5121 34.6856 64.2696 33.6534 65.2166 32.9148C66.1731 32.1667 67.2147 31.6458 68.3416 31.3523C69.478 31.0492 70.5954 30.8977 71.6939 30.8977C72.3946 30.8977 73.1996 30.983 74.1087 31.1534C75.0272 31.3144 75.9126 31.6506 76.7649 32.1619C77.6267 32.6733 78.3416 33.4451 78.9098 34.4773C79.478 35.5095 79.7621 36.892 79.7621 38.625V53H76.4098V50.0455H76.2393C76.0121 50.5189 75.6333 51.0256 75.103 51.5653C74.5727 52.1051 73.8672 52.5644 72.9865 52.9432C72.1058 53.322 71.031 53.5114 69.7621 53.5114ZM70.2734 50.5C71.5992 50.5 72.7166 50.2396 73.6257 49.7188C74.5443 49.1979 75.2356 48.5256 75.6996 47.7017C76.1731 46.8778 76.4098 46.0114 76.4098 45.1023V42.0341C76.2678 42.2045 75.9553 42.3608 75.4723 42.5028C74.9988 42.6354 74.4496 42.7538 73.8246 42.858C73.209 42.9527 72.6077 43.0379 72.0206 43.1136C71.4429 43.1799 70.9742 43.2367 70.6143 43.2841C69.7431 43.3977 68.9287 43.5824 68.1712 43.8381C67.4231 44.0843 66.817 44.4583 66.353 44.9602C65.8984 45.4527 65.6712 46.125 65.6712 46.9773C65.6712 48.142 66.102 49.0227 66.9638 49.6193C67.835 50.2064 68.9382 50.5 70.2734 50.5ZM85.8807 53V31.1818H89.1193V34.4773H89.3466C89.7443 33.3977 90.464 32.5218 91.5057 31.8494C92.5473 31.1771 93.7216 30.8409 95.0284 30.8409C95.2746 30.8409 95.5824 30.8456 95.9517 30.8551C96.321 30.8646 96.6004 30.8788 96.7898 30.8977V34.3068C96.6761 34.2784 96.4157 34.2358 96.0085 34.179C95.6108 34.1127 95.1894 34.0795 94.7443 34.0795C93.6837 34.0795 92.7367 34.3021 91.9034 34.7472C91.0795 35.1828 90.4261 35.7888 89.9432 36.5653C89.4697 37.3324 89.233 38.2083 89.233 39.1932V53H85.8807ZM111.619 31.1818V34.0227H100.312V31.1818H111.619ZM103.608 25.9545H106.96V46.75C106.96 47.697 107.098 48.4072 107.372 48.8807C107.656 49.3447 108.016 49.6572 108.452 49.8182C108.897 49.9697 109.366 50.0455 109.858 50.0455C110.227 50.0455 110.53 50.0265 110.767 49.9886C111.004 49.9413 111.193 49.9034 111.335 49.875L112.017 52.8864C111.79 52.9716 111.473 53.0568 111.065 53.142C110.658 53.2367 110.142 53.2841 109.517 53.2841C108.57 53.2841 107.642 53.0805 106.733 52.6733C105.833 52.2661 105.085 51.6458 104.489 50.8125C103.902 49.9792 103.608 48.928 103.608 47.6591V25.9545ZM117.585 53V23.9091H127.756C129.782 23.9091 131.454 24.2595 132.77 24.9602C134.086 25.6515 135.066 26.5843 135.71 27.7585C136.354 28.9233 136.676 30.2159 136.676 31.6364C136.676 32.8864 136.454 33.9186 136.009 34.733C135.573 35.5473 134.995 36.1913 134.276 36.6648C133.565 37.1383 132.794 37.4886 131.96 37.7159V38C132.85 38.0568 133.745 38.3693 134.645 38.9375C135.545 39.5057 136.297 40.3201 136.903 41.3807C137.509 42.4413 137.812 43.7386 137.812 45.2727C137.812 46.7311 137.481 48.0426 136.818 49.2074C136.155 50.3722 135.109 51.2955 133.679 51.9773C132.249 52.6591 130.388 53 128.097 53H117.585ZM121.108 49.875H128.097C130.398 49.875 132.031 49.4299 132.997 48.5398C133.973 47.6402 134.46 46.5511 134.46 45.2727C134.46 44.2879 134.209 43.3788 133.707 42.5455C133.205 41.7027 132.491 41.0303 131.562 40.5284C130.634 40.017 129.536 39.7614 128.267 39.7614H121.108V49.875ZM121.108 36.6932H127.642C128.703 36.6932 129.659 36.4848 130.511 36.0682C131.373 35.6515 132.055 35.0644 132.557 34.3068C133.068 33.5492 133.324 32.6591 133.324 31.6364C133.324 30.358 132.879 29.2737 131.989 28.3835C131.098 27.4839 129.688 27.0341 127.756 27.0341H121.108V36.6932ZM156.896 44.0795V31.1818H160.249V53H156.896V49.3068H156.669C156.158 50.4148 155.362 51.357 154.283 52.1335C153.203 52.9006 151.839 53.2841 150.192 53.2841C148.828 53.2841 147.616 52.9858 146.555 52.3892C145.495 51.7831 144.661 50.8741 144.055 49.6619C143.449 48.4403 143.146 46.9015 143.146 45.0455V31.1818H146.499V44.8182C146.499 46.4091 146.944 47.678 147.834 48.625C148.733 49.572 149.879 50.0455 151.271 50.0455C152.105 50.0455 152.952 49.8324 153.814 49.4062C154.685 48.9801 155.414 48.3267 156.001 47.446C156.598 46.5653 156.896 45.4432 156.896 44.0795ZM174.627 53.4545C172.809 53.4545 171.204 52.9953 169.812 52.0767C168.42 51.1487 167.331 49.8419 166.545 48.1562C165.759 46.4612 165.366 44.4583 165.366 42.1477C165.366 39.8561 165.759 37.8674 166.545 36.1818C167.331 34.4962 168.424 33.1941 169.826 32.2756C171.228 31.357 172.847 30.8977 174.684 30.8977C176.104 30.8977 177.227 31.1345 178.05 31.608C178.884 32.072 179.518 32.6023 179.954 33.1989C180.399 33.786 180.745 34.2689 180.991 34.6477H181.275V23.9091H184.627V53H181.388V49.6477H180.991C180.745 50.0455 180.394 50.5473 179.94 51.1534C179.485 51.75 178.836 52.285 177.994 52.7585C177.151 53.2225 176.029 53.4545 174.627 53.4545ZM175.082 50.4432C176.426 50.4432 177.563 50.0928 178.491 49.392C179.419 48.6818 180.124 47.7017 180.607 46.4517C181.09 45.1922 181.332 43.7386 181.332 42.0909C181.332 40.4621 181.095 39.0369 180.621 37.8153C180.148 36.5843 179.447 35.6278 178.519 34.946C177.591 34.2547 176.445 33.9091 175.082 33.9091C173.661 33.9091 172.478 34.2737 171.531 35.0028C170.593 35.7225 169.888 36.7027 169.414 37.9432C168.95 39.1742 168.718 40.5568 168.718 42.0909C168.718 43.6439 168.955 45.0549 169.428 46.3239C169.911 47.5833 170.621 48.5871 171.559 49.3352C172.506 50.0739 173.68 50.4432 175.082 50.4432ZM200.039 61.6364C198.42 61.6364 197.028 61.428 195.863 61.0114C194.698 60.6042 193.728 60.0644 192.951 59.392C192.184 58.7292 191.573 58.0189 191.119 57.2614L193.789 55.3864C194.092 55.7841 194.476 56.2386 194.94 56.75C195.404 57.2708 196.038 57.7206 196.843 58.0994C197.657 58.4877 198.723 58.6818 200.039 58.6818C201.8 58.6818 203.254 58.2557 204.4 57.4034C205.546 56.5511 206.119 55.2159 206.119 53.3977V48.9659H205.835C205.588 49.3636 205.238 49.8561 204.783 50.4432C204.338 51.0208 203.694 51.5369 202.852 51.9915C202.018 52.4366 200.891 52.6591 199.471 52.6591C197.71 52.6591 196.128 52.2424 194.727 51.4091C193.335 50.5758 192.231 49.3636 191.417 47.7727C190.612 46.1818 190.21 44.25 190.21 41.9773C190.21 39.7424 190.603 37.7964 191.388 36.1392C192.174 34.4725 193.268 33.1847 194.67 32.2756C196.071 31.357 197.691 30.8977 199.528 30.8977C200.948 30.8977 202.075 31.1345 202.908 31.608C203.751 32.072 204.395 32.6023 204.84 33.1989C205.295 33.786 205.645 34.2689 205.891 34.6477H206.232V31.1818H209.471V53.625C209.471 55.5 209.045 57.0246 208.192 58.1989C207.35 59.3826 206.213 60.2491 204.783 60.7983C203.363 61.357 201.781 61.6364 200.039 61.6364ZM199.925 49.6477C201.27 49.6477 202.406 49.34 203.335 48.7244C204.263 48.1089 204.968 47.2235 205.451 46.0682C205.934 44.9129 206.175 43.5303 206.175 41.9205C206.175 40.3485 205.939 38.9612 205.465 37.7585C204.992 36.5559 204.291 35.6136 203.363 34.9318C202.435 34.25 201.289 33.9091 199.925 33.9091C198.505 33.9091 197.321 34.2689 196.374 34.9886C195.437 35.7083 194.731 36.6742 194.258 37.8864C193.794 39.0985 193.562 40.4432 193.562 41.9205C193.562 43.4356 193.799 44.7756 194.272 45.9403C194.755 47.0956 195.465 48.0047 196.403 48.6676C197.35 49.321 198.524 49.6477 199.925 49.6477ZM224.755 53.4545C222.653 53.4545 220.839 52.9905 219.315 52.0625C217.799 51.125 216.63 49.8182 215.806 48.142C214.992 46.4564 214.585 44.4962 214.585 42.2614C214.585 40.0265 214.992 38.0568 215.806 36.3523C216.63 34.6383 217.776 33.303 219.244 32.3466C220.721 31.3807 222.444 30.8977 224.414 30.8977C225.55 30.8977 226.673 31.0871 227.781 31.4659C228.888 31.8447 229.897 32.4602 230.806 33.3125C231.715 34.1553 232.44 35.2727 232.979 36.6648C233.519 38.0568 233.789 39.7708 233.789 41.8068V43.2273H216.971V40.3295H230.38C230.38 39.0985 230.134 38 229.641 37.0341C229.158 36.0682 228.467 35.3059 227.567 34.7472C226.677 34.1884 225.626 33.9091 224.414 33.9091C223.079 33.9091 221.924 34.2405 220.948 34.9034C219.982 35.5568 219.239 36.4091 218.718 37.4602C218.197 38.5114 217.937 39.6383 217.937 40.8409V42.7727C217.937 44.4205 218.221 45.8172 218.789 46.9631C219.367 48.0994 220.167 48.9659 221.19 49.5625C222.212 50.1496 223.401 50.4432 224.755 50.4432C225.636 50.4432 226.431 50.3201 227.141 50.0739C227.861 49.8182 228.481 49.4394 229.002 48.9375C229.523 48.4261 229.925 47.7917 230.21 47.0341L233.448 47.9432C233.107 49.0417 232.534 50.0076 231.729 50.8409C230.924 51.6648 229.93 52.3087 228.746 52.7727C227.563 53.2273 226.232 53.4545 224.755 53.4545ZM248.377 31.1818V34.0227H237.07V31.1818H248.377ZM240.366 25.9545H243.718V46.75C243.718 47.697 243.855 48.4072 244.13 48.8807C244.414 49.3447 244.774 49.6572 245.21 49.8182C245.655 49.9697 246.123 50.0455 246.616 50.0455C246.985 50.0455 247.288 50.0265 247.525 49.9886C247.762 49.9413 247.951 49.9034 248.093 49.875L248.775 52.8864C248.548 52.9716 248.23 53.0568 247.823 53.142C247.416 53.2367 246.9 53.2841 246.275 53.2841C245.328 53.2841 244.4 53.0805 243.491 52.6733C242.591 52.2661 241.843 51.6458 241.246 50.8125C240.659 49.9792 240.366 48.928 240.366 47.6591V25.9545Z" fill="white"/>
</svg>